<svg xmlns="http://www.w3.org/2000/svg" viewBox="0 0 64 64">
  <!-- Isometric cube in the site's face colors: U white, F green, R red -->
  <g stroke="#0c0b09" stroke-width="1.6" stroke-linejoin="round">
    <path d="M32 4 58 18 32 32 6 18Z" fill="#f5f0e8"/>
    <path d="M6 18 32 32 32 60 6 46Z" fill="#009b48"/>
    <path d="M58 18 32 32 32 60 58 46Z" fill="#b71234"/>
  </g>
  <g stroke="#0c0b09" stroke-width="1.2" fill="none">
    <path d="M23.3 8.7 49.3 22.7M14.7 13.3 40.7 27.3M40.7 8.7 14.7 22.7M49.3 13.3 23.3 27.3"/>
    <path d="M14.7 22.7v28M23.3 27.3v28M6 27.3l26 14M6 36.7l26 14"/>
    <path d="M49.3 22.7v28M40.7 27.3v28M58 27.3l-26 14M58 36.7l-26 14"/>
  </g>
</svg>
